<svg xmlns="http://www.w3.org/2000/svg" width="169.5" height="50.702" viewBox="0 0 169.5 50.702"><g transform="translate(-86.109 -406.782)"><g transform="translate(86.109 406.782)"><path d="M202.663,510.1V474.9h1.751a11.293,11.293,0,0,1,8.911,4.877,11.125,11.125,0,0,1-.376,13.482,11.9,11.9,0,0,1-8.837,4.405,13.838,13.838,0,0,0,10.365-3.591,12.724,12.724,0,0,0-.121-18.766c-2.717-2.537-5.655-3.543-10.108-3.543-2.838,0-4.89-.005-4.89-.005V510.1Z" transform="translate(-177.807 -459.394)" fill="#0c6"/><g transform="translate(0 0)"><path d="M102,406.782v35.2h-1.751a11.293,11.293,0,0,1-8.911-4.877,11.126,11.126,0,0,1,.375-13.482,11.9,11.9,0,0,1,8.837-4.405A13.837,13.837,0,0,0,90.186,422.8a12.724,12.724,0,0,0,.121,18.766c2.717,2.537,5.655,3.543,10.108,3.543,2.838,0,4.89.005,4.89.005V406.782Z" transform="translate(-86.109 -406.782)" fill="#0c6"/></g></g><g transform="translate(134.77 419.243)"><path d="M360.24,472.265v25.647h-2.35v-3.595a7.481,7.481,0,0,1-2.921,2.8,8.564,8.564,0,0,1-4.1.968,9.225,9.225,0,0,1-4.632-1.175,8.4,8.4,0,0,1-3.249-3.284,10.409,10.409,0,0,1,0-9.609,8.283,8.283,0,0,1,3.249-3.266,9.34,9.34,0,0,1,4.632-1.158,8.6,8.6,0,0,1,3.992.916,7.566,7.566,0,0,1,2.921,2.679V472.265Zm-5.721,22.761a6.26,6.26,0,0,0,2.42-2.506,8.2,8.2,0,0,0,0-7.4,6.264,6.264,0,0,0-2.42-2.506,7.218,7.218,0,0,0-6.913,0,6.26,6.26,0,0,0-2.42,2.506,8.2,8.2,0,0,0,0,7.4,6.256,6.256,0,0,0,2.42,2.506,7.217,7.217,0,0,0,6.913,0Z" transform="translate(-341.817 -472.265)" fill="#0c6"/><path d="M470.862,512.552a6.881,6.881,0,0,1,1.9,5.271v11.268h-2.35v-2.834a5.626,5.626,0,0,1-2.437,2.212,8.524,8.524,0,0,1-3.819.795,7.477,7.477,0,0,1-4.839-1.452,4.994,4.994,0,0,1-.121-7.57q1.676-1.417,5.34-1.417h5.772V517.72a4.661,4.661,0,0,0-1.313-3.578,5.427,5.427,0,0,0-3.837-1.227,9.751,9.751,0,0,0-3.318.57,8.36,8.36,0,0,0-2.731,1.573L458,513.226a9.812,9.812,0,0,1,3.318-1.815,12.917,12.917,0,0,1,4.079-.64A7.7,7.7,0,0,1,470.862,512.552ZM468.1,526.378a5.676,5.676,0,0,0,2.212-2.748v-2.972h-5.7q-4.666,0-4.667,3.249a2.971,2.971,0,0,0,1.21,2.506,5.505,5.505,0,0,0,3.387.916A6.466,6.466,0,0,0,468.1,526.378Z" transform="translate(-435.501 -503.444)" fill="#0c6"/><path d="M572.755,472.265v25.647H570.4v-3.595a7.479,7.479,0,0,1-2.921,2.8,8.563,8.563,0,0,1-4.1.968,9.225,9.225,0,0,1-4.632-1.175,8.393,8.393,0,0,1-3.249-3.284,10.408,10.408,0,0,1,0-9.609,8.281,8.281,0,0,1,3.249-3.266,9.34,9.34,0,0,1,4.632-1.158,8.6,8.6,0,0,1,3.992.916,7.565,7.565,0,0,1,2.921,2.679V472.265Zm-5.72,22.761a6.258,6.258,0,0,0,2.419-2.506,8.2,8.2,0,0,0,0-7.4,6.262,6.262,0,0,0-2.419-2.506,7.218,7.218,0,0,0-6.913,0,6.259,6.259,0,0,0-2.419,2.506,8.2,8.2,0,0,0,0,7.4,6.255,6.255,0,0,0,2.419,2.506,7.218,7.218,0,0,0,6.913,0Z" transform="translate(-513.891 -472.265)" fill="#0c6"/><path d="M693.675,511.5v18.181h-2.351v-3.318a6.73,6.73,0,0,1-2.661,2.575,8.007,8.007,0,0,1-3.871.916,7.039,7.039,0,0,1-7.673-7.812V511.5h2.454v10.3a6.077,6.077,0,0,0,1.417,4.355,5.322,5.322,0,0,0,4.044,1.486,5.949,5.949,0,0,0,4.528-1.746,6.765,6.765,0,0,0,1.659-4.856V511.5Z" transform="translate(-613.311 -504.032)" fill="#0c6"/><path d="M805.183,511.93a8.287,8.287,0,0,1,3.249,3.266,10.479,10.479,0,0,1,0,9.644,8.314,8.314,0,0,1-3.232,3.266,9.3,9.3,0,0,1-4.649,1.158,8.593,8.593,0,0,1-3.992-.916,7.56,7.56,0,0,1-2.921-2.679V535.8h-2.454V510.91h2.35v3.595a7.561,7.561,0,0,1,2.921-2.765,8.572,8.572,0,0,1,4.1-.968A9.341,9.341,0,0,1,805.183,511.93Zm-1.348,14.275a6.226,6.226,0,0,0,2.437-2.506,7.63,7.63,0,0,0,.881-3.7,7.533,7.533,0,0,0-.881-3.681,6.378,6.378,0,0,0-2.437-2.506,7.13,7.13,0,0,0-6.93,0,6.41,6.41,0,0,0-2.42,2.506A7.531,7.531,0,0,0,793.6,520a7.628,7.628,0,0,0,.881,3.7,6.255,6.255,0,0,0,2.42,2.506,7.252,7.252,0,0,0,6.93,0Z" transform="translate(-705.67 -503.444)" fill="#0c6"/><path d="M910.058,512.552a6.881,6.881,0,0,1,1.9,5.271v11.268h-2.35v-2.834a5.627,5.627,0,0,1-2.437,2.212,8.525,8.525,0,0,1-3.819.795,7.477,7.477,0,0,1-4.839-1.452,4.994,4.994,0,0,1-.121-7.57q1.676-1.417,5.34-1.417h5.772V517.72a4.66,4.66,0,0,0-1.314-3.578,5.427,5.427,0,0,0-3.837-1.227,9.749,9.749,0,0,0-3.318.57,8.361,8.361,0,0,0-2.731,1.573l-1.106-1.832a9.809,9.809,0,0,1,3.318-1.815,12.917,12.917,0,0,1,4.079-.64A7.7,7.7,0,0,1,910.058,512.552Zm-2.765,13.826a5.676,5.676,0,0,0,2.212-2.748v-2.972h-5.7q-4.666,0-4.666,3.249a2.971,2.971,0,0,0,1.21,2.506,5.5,5.5,0,0,0,3.387.916A6.465,6.465,0,0,0,907.293,526.378Z" transform="translate(-791.12 -503.444)" fill="#0c6"/></g></g></svg>